<svg width="32" height="32" viewBox="0 0 32 32" fill="none" xmlns="http://www.w3.org/2000/svg">
<path d="M16.0004 20.9994C18.7618 20.9994 21.0004 18.7608 21.0004 15.9994C21.0004 13.238 18.7618 10.9994 16.0004 10.9994C13.2389 10.9994 11.0004 13.238 11.0004 15.9994C11.0004 18.7608 13.2389 20.9994 16.0004 20.9994Z" stroke="#010203" stroke-width="2" stroke-linecap="round" stroke-linejoin="round"/>
<path d="M22.6356 25.9997C20.4077 27.4782 17.7499 28.1704 15.0839 27.9665C12.4179 27.7625 9.89633 26.6741 7.91934 24.8738C5.94235 23.0736 4.62316 20.6647 4.1711 18.0294C3.71904 15.3941 4.16 12.6833 5.42401 10.3271C6.68802 7.97092 8.70268 6.10434 11.1483 5.02353C13.594 3.94273 16.3305 3.7096 18.9237 4.36115C21.5169 5.01269 23.8183 6.51159 25.4626 8.62C27.107 10.7284 28.0001 13.3256 28.0004 15.9994C28.0004 18.7608 27.0004 20.9994 24.5004 20.9994C22.0004 20.9994 21.0004 18.7608 21.0004 15.9994V10.9994" stroke="#010203" stroke-width="2" stroke-linecap="round" stroke-linejoin="round"/>
</svg>
