<svg width="32" height="32" viewBox="0 0 32 32" fill="none" xmlns="http://www.w3.org/2000/svg">
<path d="M16 22C19.3137 22 22 19.3137 22 16C22 12.6863 19.3137 10 16 10C12.6863 10 10 12.6863 10 16C10 19.3137 12.6863 22 16 22Z" stroke="black" stroke-width="2" stroke-linecap="round" stroke-linejoin="round"/>
<path d="M15.359 5.51924L13.0003 3.75075C12.8737 3.65555 12.7264 3.59179 12.5703 3.56472C12.4143 3.53765 12.2541 3.54804 12.1028 3.59505C11.3723 3.82381 10.6636 4.11704 9.98502 4.47128C9.84455 4.54497 9.72362 4.651 9.6322 4.78063C9.54078 4.91026 9.4815 5.05978 9.45925 5.21683L9.04229 8.1357C8.88335 8.27658 8.72775 8.42312 8.57548 8.57529C8.42326 8.72752 8.2767 8.88316 8.13578 9.04222L8.13571 9.04227L5.21737 9.45961C5.06056 9.48178 4.91127 9.54089 4.7818 9.63208C4.65232 9.72327 4.54637 9.84392 4.47268 9.9841C4.11789 10.6624 3.82409 11.3709 3.59474 12.1012C3.54751 12.2526 3.53698 12.4131 3.564 12.5694C3.59102 12.7257 3.65483 12.8734 3.75015 13.0002L5.51926 15.359C5.50649 15.571 5.50008 15.7846 5.50002 15.9999C5.50002 16.2151 5.50643 16.4288 5.51927 16.641L5.51926 16.641L3.75077 18.9997C3.65557 19.1263 3.5918 19.2737 3.56473 19.4297C3.53766 19.5857 3.54806 19.7459 3.59507 19.8972C3.82382 20.6277 4.11705 21.3364 4.4713 22.015C4.54498 22.1555 4.65101 22.2764 4.78065 22.3678C4.91028 22.4592 5.05979 22.5185 5.21685 22.5408L8.13571 22.9577C8.27659 23.1167 8.42313 23.2723 8.57531 23.4245C8.72752 23.5768 8.88317 23.7233 9.04223 23.8642L9.04228 23.8643L9.45962 26.7827C9.48179 26.9395 9.5409 27.0887 9.63209 27.2182C9.72328 27.3477 9.84393 27.4536 9.98411 27.5273C10.6624 27.8821 11.3709 28.1759 12.1012 28.4053C12.2527 28.4525 12.4131 28.463 12.5695 28.436C12.7258 28.409 12.8734 28.3452 13.0002 28.2499L15.359 26.4808C15.571 26.4935 15.7846 26.4999 15.9999 26.5C16.2152 26.5 16.4289 26.4936 16.641 26.4808L16.6411 26.4808L18.9997 28.2493C19.1263 28.3445 19.2737 28.4082 19.4297 28.4353C19.5857 28.4624 19.746 28.452 19.8972 28.405C20.6277 28.1762 21.3364 27.883 22.015 27.5287C22.1555 27.455 22.2764 27.349 22.3678 27.2194C22.4593 27.0897 22.5185 26.9402 22.5408 26.7832L22.9577 23.8643C23.1167 23.7234 23.2723 23.5769 23.4246 23.4247C23.5768 23.2725 23.7233 23.1169 23.8643 22.9578L23.8643 22.9577L26.7827 22.5404C26.9395 22.5182 27.0888 22.4591 27.2182 22.3679C27.3477 22.2767 27.4537 22.1561 27.5274 22.0159C27.8821 21.3376 28.1759 20.6291 28.4053 19.8988C28.4525 19.7474 28.4631 19.5869 28.436 19.4306C28.409 19.2743 28.3452 19.1266 28.2499 18.9998L26.4808 16.6411C26.4935 16.429 26.5 16.2154 26.5 16.0001C26.5 15.7849 26.4936 15.5712 26.4808 15.359L26.4808 15.359L28.2493 13.0003C28.3445 12.8737 28.4082 12.7264 28.4353 12.5703C28.4624 12.4143 28.452 12.2541 28.405 12.1028C28.1762 11.3723 27.883 10.6636 27.5287 9.98501C27.4551 9.84454 27.349 9.7236 27.2194 9.63218C27.0898 9.54076 26.9402 9.48148 26.7832 9.45924L23.8643 9.04227C23.7234 8.88334 23.5769 8.72773 23.4247 8.57547C23.2725 8.42325 23.1169 8.27668 22.9578 8.13576L22.9578 8.1357L22.5404 5.21735C22.5182 5.06055 22.4591 4.91126 22.3679 4.78178C22.2768 4.65231 22.1561 4.54636 22.0159 4.47266C21.3376 4.11787 20.6291 3.82407 19.8988 3.59473C19.7474 3.5475 19.5869 3.53696 19.4306 3.56398C19.2743 3.591 19.1266 3.65481 18.9999 3.75014L16.6411 5.51924C16.4291 5.50648 16.2154 5.50006 16.0001 5.5C15.7849 5.5 15.5712 5.50642 15.3591 5.51925L15.359 5.51924Z" stroke="black" stroke-width="2" stroke-linecap="round" stroke-linejoin="round"/>
</svg>
