<svg width="32" height="32" viewBox="0 0 32 32" fill="none" xmlns="http://www.w3.org/2000/svg">
<path d="M16 28C22.6274 28 28 22.6274 28 16C28 9.37258 22.6274 4 16 4C9.37258 4 4 9.37258 4 16C4 22.6274 9.37258 28 16 28Z" stroke="black" stroke-width="2" stroke-linecap="round" stroke-linejoin="round"/>
<path d="M6.1983 22.9242L7.65803 22.043C7.80466 21.9545 7.9261 21.8298 8.01071 21.6809C8.09531 21.532 8.14025 21.3638 8.14121 21.1926L8.16656 16.6764C8.16762 16.4877 8.22204 16.3032 8.32354 16.1441L10.8039 12.2569C10.8772 12.142 10.9732 12.0433 11.086 11.9669C11.1989 11.8905 11.3261 11.8379 11.46 11.8124C11.5939 11.787 11.7316 11.7892 11.8646 11.8188C11.9977 11.8485 12.1232 11.9051 12.2336 11.985L14.6905 13.7651C14.8986 13.9159 15.1568 13.9808 15.4115 13.9463L19.3465 13.4134C19.5879 13.3807 19.809 13.261 19.9684 13.0768L22.7381 9.87672C22.9062 9.68245 22.9931 9.43091 22.9808 9.17428L22.8348 6.13635" stroke="black" stroke-width="2" stroke-linecap="round" stroke-linejoin="round"/>
<path d="M23.3834 25.4603L22.0419 24.1162C21.9164 23.9905 21.7597 23.9005 21.5879 23.8554L18.9056 23.1515C18.6676 23.089 18.4609 22.9409 18.3252 22.7356C18.1895 22.5302 18.1343 22.2821 18.1701 22.0386L18.4682 20.014C18.4934 19.8432 18.5624 19.6817 18.6685 19.5454C18.7746 19.4091 18.9142 19.3026 19.0737 19.2363L22.8801 17.6542C23.0559 17.5811 23.2489 17.5598 23.4364 17.5926C23.624 17.6255 23.7983 17.7112 23.9388 17.8397L27.0506 20.6857" stroke="black" stroke-width="2" stroke-linecap="round" stroke-linejoin="round"/>
</svg>
