<svg width="32" height="32" viewBox="0 0 32 32" fill="none" xmlns="http://www.w3.org/2000/svg">
<rect width="32" height="32" rx="16" fill="black"/>
<path d="M16.786 21.6C10.7728 21.6 7.34291 17.3958 7.2 10.4H10.2121C10.3111 15.5347 12.5317 17.7097 14.2906 18.1582V10.4H17.1268V14.8284C18.8637 14.6378 20.6886 12.6198 21.3042 10.4H24.1404C23.9084 11.5513 23.446 12.6413 22.7821 13.602C22.1181 14.5627 21.267 15.3733 20.2818 15.9832C21.3815 16.5404 22.3528 17.3292 23.1316 18.2974C23.9104 19.2656 24.4791 20.3912 24.8 21.6H21.6779C21.3898 20.5501 20.8043 19.6102 19.9947 18.8983C19.1851 18.1863 18.1875 17.7338 17.1268 17.5976V21.6H16.786Z" fill="white"/>
</svg>
